<svg width="38" height="39" viewBox="0 0 38 39" fill="none" xmlns="http://www.w3.org/2000/svg">
<g clip-path="url(#clip0_6_50)">
<path d="M19 0.974949C8.50369 0.974949 0 9.52991 0 20.0735C0 28.5163 5.4435 35.6722 12.9877 38.1968C13.9413 38.3771 14.2856 37.7862 14.2856 37.2753C14.2856 36.8217 14.2749 35.6221 14.2678 34.0298C8.97988 35.1805 7.866 31.4622 7.866 31.4622C7.00031 29.2611 5.75106 28.6702 5.75106 28.6702C4.03156 27.4897 5.88763 27.5148 5.88763 27.5148C7.79238 27.6449 8.79463 29.4783 8.79463 29.4783C10.4892 32.4004 13.2406 31.5553 14.3296 31.0635C14.4958 29.8329 14.991 28.9866 15.5301 28.5151C11.3121 28.0364 6.87681 26.3951 6.87681 19.0768C6.87681 16.9867 7.61306 15.2845 8.83025 13.9476C8.62006 13.469 7.97644 11.5233 8.99769 8.89249C8.99769 8.89249 10.5878 8.3828 14.2227 10.8513C15.7711 10.428 17.3681 10.2109 18.9727 10.2055C20.5877 10.2163 22.2015 10.4287 23.7227 10.8513C27.3362 8.3828 28.9251 8.89249 28.9251 8.89249C29.9452 11.5233 29.3016 13.4678 29.1163 13.9476C30.3216 15.2845 31.0579 16.9879 31.0579 19.0768C31.0579 26.4118 26.6166 28.0292 22.3939 28.496C23.0541 29.0677 23.6728 30.2435 23.6728 32.028C23.6728 34.5824 23.6491 36.6403 23.6491 37.2622C23.6491 37.7588 23.9816 38.3556 24.9601 38.1634C32.5601 35.6651 37.9976 28.5031 37.9976 20.0723C37.9976 9.52871 29.4939 0.973755 18.9976 0.973755L19 0.974949Z" fill="#8799BB  "/>
</g>
<defs>
<clipPath id="clip0_6_50">
<rect width="38" height="38.1971" fill="white" transform="translate(0 0.502319)"/>
</clipPath>
</defs>
</svg>
