<svg width="38" height="39" viewBox="0 0 38 39" fill="none" xmlns="http://www.w3.org/2000/svg">
<path d="M20.6277 3.68702C21.7831 3.68256 22.9385 3.69423 24.0936 3.72203L24.4008 3.73317C24.7554 3.7459 25.1054 3.76182 25.5281 3.78092C27.2128 3.8605 28.3623 4.12788 29.3709 4.52099C30.4159 4.92524 31.2962 5.47273 32.1765 6.35763C32.9814 7.15278 33.6044 8.11461 34.0021 9.17626C34.3932 10.1901 34.6592 11.3471 34.7384 13.0405C34.7574 13.4639 34.7732 13.8172 34.7859 14.1737L34.7954 14.4825C34.8235 15.643 34.8356 16.8039 34.8318 17.9648L34.8334 19.1521V21.237C34.8373 22.3984 34.8251 23.5598 34.7969 24.7209L34.7874 25.0297C34.7748 25.3862 34.7589 25.7379 34.7399 26.1628C34.6608 27.8562 34.3916 29.0117 34.0021 30.0255C33.6057 31.0883 32.9826 32.0509 32.1765 32.8457C31.3848 33.6547 30.4274 34.2809 29.3709 34.6808C28.3623 35.0739 27.2128 35.3413 25.5281 35.4209C25.1054 35.44 24.7554 35.4559 24.4008 35.4686L24.0936 35.4782C22.9385 35.5064 21.7831 35.5186 20.6277 35.5148L19.4465 35.5163H17.3739C16.2185 35.5203 15.0631 35.5081 13.908 35.4797L13.6009 35.4702C13.225 35.4565 12.8492 35.4406 12.4735 35.4224C10.7889 35.3429 9.63935 35.0723 8.62918 34.6808C7.5726 34.2819 6.61556 33.6556 5.8251 32.8457C5.01926 32.0504 4.39571 31.088 3.99794 30.0255C3.60685 29.0117 3.34085 27.8562 3.26168 26.1628C3.24405 25.7852 3.22822 25.4075 3.21419 25.0297L3.20627 24.7209C3.17708 23.5598 3.16388 22.3984 3.16669 21.237V17.9648C3.16227 16.8039 3.17388 15.643 3.20152 14.4825L3.2126 14.1737C3.22527 13.8172 3.2411 13.4639 3.2601 13.0405C3.33927 11.3455 3.60527 10.1917 3.99635 9.17626C4.39436 8.11409 5.01913 7.15252 5.82669 6.35922C6.6166 5.54873 7.57304 4.92138 8.62918 4.52099C9.63935 4.12788 10.7873 3.8605 12.4735 3.78092L13.6009 3.73317L13.908 3.72521C15.0626 3.69589 16.2174 3.68262 17.3724 3.68543L20.6277 3.68702ZM19 11.6447C17.9511 11.6298 16.9096 11.8246 15.9362 12.2178C14.9628 12.611 14.0769 13.1947 13.3299 13.9351C12.5828 14.6754 11.9897 15.5576 11.5848 16.5304C11.1799 17.5032 10.9714 18.5472 10.9714 19.6017C10.9714 20.6562 11.1799 21.7002 11.5848 22.673C11.9897 23.6457 12.5828 24.5279 13.3299 25.2683C14.0769 26.0086 14.9628 26.5924 15.9362 26.9856C16.9096 27.3787 17.9511 27.5735 19 27.5586C21.0996 27.5586 23.1133 26.7202 24.5979 25.2279C26.0826 23.7355 26.9167 21.7114 26.9167 19.6009C26.9167 17.4904 26.0826 15.4663 24.5979 13.9739C23.1133 12.4816 21.0996 11.6447 19 11.6447ZM19 14.8278C19.631 14.8162 20.2579 14.931 20.8443 15.1656C21.4306 15.4002 21.9646 15.7499 22.4149 16.1943C22.8653 16.6386 23.223 17.1687 23.4673 17.7536C23.7116 18.3386 23.8374 18.9665 23.8375 19.6009C23.8376 20.2352 23.712 20.8632 23.4679 21.4482C23.2239 22.0332 22.8663 22.5635 22.416 23.008C21.9658 23.4525 21.432 23.8024 20.8457 24.0372C20.2595 24.272 19.6326 24.387 19.0016 24.3755C17.7418 24.3755 16.5336 23.8725 15.6428 22.9771C14.752 22.0816 14.2516 20.8672 14.2516 19.6009C14.2516 18.3346 14.752 17.1201 15.6428 16.2247C16.5336 15.3293 17.7418 14.8262 19.0016 14.8262L19 14.8278ZM27.3125 9.25743C26.8017 9.27798 26.3187 9.4964 25.9645 9.86695C25.6103 10.2375 25.4125 10.7314 25.4125 11.2453C25.4125 11.7591 25.6103 12.253 25.9645 12.6236C26.3187 12.9941 26.8017 13.2126 27.3125 13.2331C27.8374 13.2331 28.3408 13.0235 28.712 12.6504C29.0832 12.2773 29.2917 11.7713 29.2917 11.2437C29.2917 10.716 29.0832 10.21 28.712 9.83694C28.3408 9.46385 27.8374 9.25425 27.3125 9.25425V9.25743Z" fill="#D19966"/>
</svg>
