<svg width="38" height="39" viewBox="0 0 38 39" fill="none" xmlns="http://www.w3.org/2000/svg">
<path d="M30.0833 5.28735C30.9232 5.28735 31.7286 5.62271 32.3225 6.21966C32.9164 6.81661 33.25 7.62624 33.25 8.47045V30.7521C33.25 31.5963 32.9164 32.4059 32.3225 33.0029C31.7286 33.5998 30.9232 33.9352 30.0833 33.9352H7.91667C7.07681 33.9352 6.27136 33.5998 5.6775 33.0029C5.08363 32.4059 4.75 31.5963 4.75 30.7521V8.47045C4.75 7.62624 5.08363 6.81661 5.6775 6.21966C6.27136 5.62271 7.07681 5.28735 7.91667 5.28735H30.0833ZM29.2917 29.9563V21.5211C29.2917 20.1451 28.7479 18.8254 27.7798 17.8523C26.8118 16.8793 25.499 16.3327 24.13 16.3327C22.7842 16.3327 21.2167 17.1603 20.4567 18.4017V16.6351H16.0392V29.9563H20.4567V22.11C20.4567 20.8845 21.4383 19.8818 22.6575 19.8818C23.2454 19.8818 23.8092 20.1166 24.2249 20.5344C24.6406 20.9523 24.8742 21.519 24.8742 22.11V29.9563H29.2917ZM10.8933 14.1364C11.5988 14.1364 12.2754 13.8546 12.7742 13.3532C13.2731 12.8518 13.5533 12.1717 13.5533 11.4626C13.5533 9.98241 12.3658 8.77284 10.8933 8.77284C10.1837 8.77284 9.50305 9.05622 9.00123 9.56064C8.49942 10.0651 8.2175 10.7492 8.2175 11.4626C8.2175 12.9427 9.42083 14.1364 10.8933 14.1364ZM13.0942 29.9563V16.6351H8.70833V29.9563H13.0942Z" fill="#D19966"/>
</svg>
