<svg width="38" height="39" viewBox="0 0 38 39" fill="none" xmlns="http://www.w3.org/2000/svg">
<path d="M6.33342 32.3436C5.46258 32.3436 4.71683 32.0317 4.09617 31.4078C3.4755 30.7839 3.1657 30.0348 3.16675 29.1606V10.062C3.16675 9.18665 3.47708 8.43703 4.09775 7.81315C4.71842 7.18926 5.46364 6.87785 6.33342 6.87891H31.6667C32.5376 6.87891 33.2833 7.19085 33.904 7.81474C34.5247 8.43862 34.8345 9.18771 34.8334 10.062V29.1606C34.8334 30.0359 34.5231 30.7855 33.9024 31.4094C33.2818 32.0333 32.5365 32.3447 31.6667 32.3436H6.33342ZM19.0001 21.2028L31.6667 13.2451V10.062L19.0001 18.0197L6.33342 10.062V13.2451L19.0001 21.2028Z" fill="#8799BB"/>
</svg>
