<svg width="38" height="39" viewBox="0 0 38 39" fill="none" xmlns="http://www.w3.org/2000/svg">
<path d="M34.4197 26.6411C34.155 28.6629 33.1672 30.5187 31.6408 31.8619C30.1144 33.2052 28.1537 33.944 26.125 33.9403C14.3391 33.9403 4.75001 24.3015 4.75001 12.4544C4.74638 10.4152 5.48135 8.44437 6.81765 6.91003C8.15395 5.37569 10.0002 4.38277 12.0116 4.11672C12.5202 4.0543 13.0353 4.15889 13.4799 4.4149C13.9245 4.6709 14.2749 5.06459 14.4786 5.53718L17.6136 12.5723V12.5902C17.7696 12.952 17.834 13.3469 17.8011 13.7398C17.7682 14.1327 17.639 14.5113 17.4251 14.8418C17.3984 14.882 17.3702 14.9193 17.3405 14.9566L14.25 18.6391C15.3618 20.91 17.7249 23.2645 20.0138 24.3851L23.6268 21.295C23.6623 21.265 23.6995 21.2371 23.7381 21.2114C24.0666 20.9912 24.4445 20.8568 24.8377 20.8203C25.2309 20.7838 25.6269 20.8465 25.9899 21.0025L26.0092 21.0115L33.0021 24.1613C33.4731 24.3653 33.8657 24.7172 34.1212 25.1642C34.3768 25.6112 34.4815 26.1293 34.4197 26.6411Z" fill="#D19966"/>
</svg>
